<mxfile host="app.diagrams.net" agent="Mozilla/5.0 (Windows NT 10.0; Win64; x64) AppleWebKit/537.36 (KHTML, like Gecko) Chrome/134.0.0.0 Safari/537.36" version="26.2.5">
  <diagram name="Page-1" id="_tSPWglAjpKfu6llfGJf">
    <mxGraphModel dx="1587" dy="872" grid="1" gridSize="10" guides="1" tooltips="1" connect="1" arrows="1" fold="1" page="1" pageScale="1" pageWidth="827" pageHeight="1169" math="0" shadow="0">
      <root>
        <mxCell id="0" />
        <mxCell id="1" parent="0" />
        <mxCell id="hy5eUsEjmIH-JKfgrxxE-1" value="" style="rounded=0;whiteSpace=wrap;html=1;fillColor=none;" vertex="1" parent="1">
          <mxGeometry x="50" y="110" width="190" height="730" as="geometry" />
        </mxCell>
        <mxCell id="hy5eUsEjmIH-JKfgrxxE-2" value="Sources" style="rounded=0;whiteSpace=wrap;html=1;strokeColor=none;fillColor=default;" vertex="1" parent="1">
          <mxGeometry x="99.5" y="90" width="80" height="40" as="geometry" />
        </mxCell>
        <mxCell id="hy5eUsEjmIH-JKfgrxxE-3" value="" style="rounded=0;whiteSpace=wrap;html=1;fillColor=none;" vertex="1" parent="1">
          <mxGeometry x="350" y="110" width="890" height="730" as="geometry" />
        </mxCell>
        <mxCell id="hy5eUsEjmIH-JKfgrxxE-4" value="Data Warehouse" style="rounded=0;whiteSpace=wrap;html=1;strokeColor=none;fillColor=default;" vertex="1" parent="1">
          <mxGeometry x="640" y="90" width="135" height="40" as="geometry" />
        </mxCell>
        <mxCell id="hy5eUsEjmIH-JKfgrxxE-5" value="" style="rounded=0;whiteSpace=wrap;html=1;fillColor=none;" vertex="1" parent="1">
          <mxGeometry x="1310" y="110" width="170" height="730" as="geometry" />
        </mxCell>
        <mxCell id="hy5eUsEjmIH-JKfgrxxE-6" value="Consume" style="rounded=0;whiteSpace=wrap;html=1;strokeColor=none;fillColor=default;" vertex="1" parent="1">
          <mxGeometry x="1355" y="80" width="80" height="40" as="geometry" />
        </mxCell>
        <mxCell id="hy5eUsEjmIH-JKfgrxxE-7" value="Bronze Layer" style="rounded=0;whiteSpace=wrap;html=1;fillColor=#fff2cc;strokeColor=#d6b656;" vertex="1" parent="1">
          <mxGeometry x="390" y="160" width="120" height="30" as="geometry" />
        </mxCell>
        <mxCell id="hy5eUsEjmIH-JKfgrxxE-8" value="" style="rounded=0;whiteSpace=wrap;html=1;fillColor=none;" vertex="1" parent="1">
          <mxGeometry x="392" y="200" width="208" height="600" as="geometry" />
        </mxCell>
        <mxCell id="hy5eUsEjmIH-JKfgrxxE-9" value="Silver Layer" style="rounded=0;whiteSpace=wrap;html=1;fillColor=#f5f5f5;strokeColor=#666666;fontColor=#333333;" vertex="1" parent="1">
          <mxGeometry x="724" y="160" width="120" height="30" as="geometry" />
        </mxCell>
        <mxCell id="hy5eUsEjmIH-JKfgrxxE-10" value="" style="rounded=0;whiteSpace=wrap;html=1;fillColor=none;" vertex="1" parent="1">
          <mxGeometry x="680" y="200" width="208" height="600" as="geometry" />
        </mxCell>
        <mxCell id="hy5eUsEjmIH-JKfgrxxE-11" value="Gold Layer" style="rounded=0;whiteSpace=wrap;html=1;fillColor=#f8cecc;strokeColor=#b85450;" vertex="1" parent="1">
          <mxGeometry x="1005" y="160" width="120" height="30" as="geometry" />
        </mxCell>
        <mxCell id="hy5eUsEjmIH-JKfgrxxE-12" value="" style="rounded=0;whiteSpace=wrap;html=1;fillColor=none;" vertex="1" parent="1">
          <mxGeometry x="960" y="200" width="210" height="600" as="geometry" />
        </mxCell>
        <mxCell id="hy5eUsEjmIH-JKfgrxxE-13" value="" style="image;aspect=fixed;html=1;points=[];align=center;fontSize=12;image=img/lib/azure2/general/Folder_Blank.svg;" vertex="1" parent="1">
          <mxGeometry x="110.5" y="270" width="69" height="56.00000000000001" as="geometry" />
        </mxCell>
        <mxCell id="hy5eUsEjmIH-JKfgrxxE-14" value="CRM" style="rounded=0;whiteSpace=wrap;html=1;strokeColor=none;" vertex="1" parent="1">
          <mxGeometry x="110.5" y="330" width="70" height="20" as="geometry" />
        </mxCell>
        <mxCell id="hy5eUsEjmIH-JKfgrxxE-15" value="" style="image;aspect=fixed;html=1;points=[];align=center;fontSize=12;image=img/lib/azure2/general/Folder_Blank.svg;" vertex="1" parent="1">
          <mxGeometry x="111.5" y="380" width="69" height="56.00000000000001" as="geometry" />
        </mxCell>
        <mxCell id="hy5eUsEjmIH-JKfgrxxE-16" value="ERP" style="rounded=0;whiteSpace=wrap;html=1;strokeColor=none;" vertex="1" parent="1">
          <mxGeometry x="109.5" y="450" width="70" height="20" as="geometry" />
        </mxCell>
        <mxCell id="hy5eUsEjmIH-JKfgrxxE-19" value="" style="endArrow=none;html=1;rounded=0;fillColor=#e1d5e7;strokeColor=#9673a6;strokeWidth=3;" edge="1" parent="1">
          <mxGeometry width="50" height="50" relative="1" as="geometry">
            <mxPoint x="111.5" y="520" as="sourcePoint" />
            <mxPoint x="161.5" y="520" as="targetPoint" />
            <Array as="points">
              <mxPoint x="156.5" y="520" />
            </Array>
          </mxGeometry>
        </mxCell>
        <mxCell id="hy5eUsEjmIH-JKfgrxxE-20" value="&lt;b&gt;Object type&lt;/b&gt;: CSV Files&lt;div&gt;&lt;b&gt;Interface&lt;/b&gt;: Files in Folder&lt;/div&gt;" style="text;html=1;align=center;verticalAlign=middle;whiteSpace=wrap;rounded=0;strokeWidth=4;fontSize=15;" vertex="1" parent="1">
          <mxGeometry x="61" y="555" width="170" height="60" as="geometry" />
        </mxCell>
        <mxCell id="hy5eUsEjmIH-JKfgrxxE-22" value="" style="shape=flexArrow;endArrow=classic;html=1;rounded=0;fillColor=#dae8fc;strokeColor=#6c8ebf;" edge="1" parent="1">
          <mxGeometry width="50" height="50" relative="1" as="geometry">
            <mxPoint x="270" y="380" as="sourcePoint" />
            <mxPoint x="320" y="380" as="targetPoint" />
          </mxGeometry>
        </mxCell>
        <mxCell id="hy5eUsEjmIH-JKfgrxxE-24" value="" style="shape=flexArrow;endArrow=classic;html=1;rounded=0;fillColor=#dae8fc;strokeColor=#6c8ebf;" edge="1" parent="1">
          <mxGeometry width="50" height="50" relative="1" as="geometry">
            <mxPoint x="900" y="380.00000000000006" as="sourcePoint" />
            <mxPoint x="950" y="380.00000000000006" as="targetPoint" />
          </mxGeometry>
        </mxCell>
        <mxCell id="hy5eUsEjmIH-JKfgrxxE-25" value="" style="shape=flexArrow;endArrow=classic;html=1;rounded=0;fillColor=#dae8fc;strokeColor=#6c8ebf;" edge="1" parent="1">
          <mxGeometry width="50" height="50" relative="1" as="geometry">
            <mxPoint x="1270" y="377.28000000000003" as="sourcePoint" />
            <mxPoint x="1308" y="377.28000000000003" as="targetPoint" />
          </mxGeometry>
        </mxCell>
        <mxCell id="hy5eUsEjmIH-JKfgrxxE-26" value="" style="shape=flexArrow;endArrow=classic;html=1;rounded=0;fillColor=#dae8fc;strokeColor=#6c8ebf;" edge="1" parent="1">
          <mxGeometry width="50" height="50" relative="1" as="geometry">
            <mxPoint x="620" y="380" as="sourcePoint" />
            <mxPoint x="670" y="380" as="targetPoint" />
          </mxGeometry>
        </mxCell>
        <mxCell id="hy5eUsEjmIH-JKfgrxxE-28" value="" style="html=1;verticalLabelPosition=bottom;align=center;labelBackgroundColor=#ffffff;verticalAlign=top;strokeWidth=2;strokeColor=#d79b00;shadow=0;dashed=0;shape=mxgraph.ios7.icons.data;fillColor=#ffe6cc;" vertex="1" parent="1">
          <mxGeometry x="460" y="220" width="62" height="93.55" as="geometry" />
        </mxCell>
        <mxCell id="hy5eUsEjmIH-JKfgrxxE-29" value="" style="html=1;verticalLabelPosition=bottom;align=center;labelBackgroundColor=#ffffff;verticalAlign=top;strokeWidth=2;strokeColor=#666666;shadow=0;dashed=0;shape=mxgraph.ios7.icons.data;fillColor=#f5f5f5;fontColor=#333333;" vertex="1" parent="1">
          <mxGeometry x="753" y="249.99999999999997" width="62" height="93.55" as="geometry" />
        </mxCell>
        <mxCell id="hy5eUsEjmIH-JKfgrxxE-30" value="" style="html=1;verticalLabelPosition=bottom;align=center;labelBackgroundColor=#ffffff;verticalAlign=top;strokeWidth=2;strokeColor=#b85450;shadow=0;dashed=0;shape=mxgraph.ios7.icons.data;fillColor=#f8cecc;" vertex="1" parent="1">
          <mxGeometry x="1035" y="220" width="62" height="93.55" as="geometry" />
        </mxCell>
        <mxCell id="hy5eUsEjmIH-JKfgrxxE-31" value="Raw Data" style="text;html=1;align=center;verticalAlign=middle;whiteSpace=wrap;rounded=0;" vertex="1" parent="1">
          <mxGeometry x="461" y="332.78000000000003" width="60" height="30" as="geometry" />
        </mxCell>
        <mxCell id="hy5eUsEjmIH-JKfgrxxE-32" value="Cleaned, Standardized Data" style="text;html=1;align=center;verticalAlign=middle;whiteSpace=wrap;rounded=0;" vertex="1" parent="1">
          <mxGeometry x="743.5" y="362.78000000000003" width="81" height="30" as="geometry" />
        </mxCell>
        <mxCell id="hy5eUsEjmIH-JKfgrxxE-33" value="Business-Ready Data" style="text;html=1;align=center;verticalAlign=middle;whiteSpace=wrap;rounded=0;" vertex="1" parent="1">
          <mxGeometry x="1035" y="338.55" width="71" height="30" as="geometry" />
        </mxCell>
        <mxCell id="hy5eUsEjmIH-JKfgrxxE-34" value="" style="endArrow=none;html=1;rounded=0;" edge="1" parent="1">
          <mxGeometry width="50" height="50" relative="1" as="geometry">
            <mxPoint x="452.5" y="407.5" as="sourcePoint" />
            <mxPoint x="529.5" y="407.5" as="targetPoint" />
          </mxGeometry>
        </mxCell>
        <mxCell id="hy5eUsEjmIH-JKfgrxxE-35" value="" style="endArrow=none;html=1;rounded=0;" edge="1" parent="1">
          <mxGeometry width="50" height="50" relative="1" as="geometry">
            <mxPoint x="743.5" y="407.5" as="sourcePoint" />
            <mxPoint x="820.5" y="407.5" as="targetPoint" />
          </mxGeometry>
        </mxCell>
        <mxCell id="hy5eUsEjmIH-JKfgrxxE-36" value="" style="endArrow=none;html=1;rounded=0;" edge="1" parent="1">
          <mxGeometry width="50" height="50" relative="1" as="geometry">
            <mxPoint x="1035" y="403.55" as="sourcePoint" />
            <mxPoint x="1112" y="403.55" as="targetPoint" />
          </mxGeometry>
        </mxCell>
        <mxCell id="hy5eUsEjmIH-JKfgrxxE-37" value="&lt;b&gt;Object type&lt;/b&gt;: Tables&lt;div&gt;&lt;b&gt;Load&lt;/b&gt;&lt;/div&gt;&lt;div&gt;&lt;ul&gt;&lt;li&gt;&lt;font style=&quot;font-size: 12px;&quot;&gt;Batch Processing&lt;/font&gt;&lt;/li&gt;&lt;li&gt;Full Load&lt;/li&gt;&lt;li&gt;Truncate &amp;amp; Insert&lt;/li&gt;&lt;/ul&gt;&lt;div&gt;No Transformation&lt;/div&gt;&lt;/div&gt;&lt;div&gt;&lt;br&gt;&lt;/div&gt;&lt;div&gt;&lt;b&gt;Data Model&lt;/b&gt;: None (as is)&lt;/div&gt;" style="text;html=1;align=left;verticalAlign=middle;whiteSpace=wrap;rounded=0;strokeWidth=4;fontSize=15;" vertex="1" parent="1">
          <mxGeometry x="401.5" y="420" width="179" height="340" as="geometry" />
        </mxCell>
        <mxCell id="hy5eUsEjmIH-JKfgrxxE-40" value="&lt;b&gt;Object type&lt;/b&gt;: Tables&lt;div&gt;&lt;b&gt;Load&lt;/b&gt;&lt;/div&gt;&lt;div&gt;&lt;ul&gt;&lt;li&gt;&lt;font style=&quot;font-size: 12px;&quot;&gt;Batch Processing&lt;/font&gt;&lt;/li&gt;&lt;li&gt;Full Load&lt;/li&gt;&lt;li&gt;Truncate &amp;amp; Insert&lt;/li&gt;&lt;/ul&gt;&lt;div&gt;&lt;b&gt;Transformation&lt;/b&gt;&lt;/div&gt;&lt;/div&gt;&lt;div&gt;&lt;ul&gt;&lt;li&gt;&lt;font style=&quot;font-size: 13px;&quot;&gt;Data Cleaning&lt;/font&gt;&lt;/li&gt;&lt;li&gt;&lt;font style=&quot;font-size: 13px;&quot;&gt;Data Standardization&lt;/font&gt;&lt;/li&gt;&lt;li&gt;&lt;span style=&quot;font-size: 13px;&quot;&gt;Data Normalization&lt;/span&gt;&lt;/li&gt;&lt;li&gt;&lt;span style=&quot;font-size: 13px;&quot;&gt;Derived Columns&lt;/span&gt;&lt;/li&gt;&lt;li&gt;&lt;span style=&quot;font-size: 13px;&quot;&gt;Data Enrichment&lt;/span&gt;&lt;/li&gt;&lt;/ul&gt;&lt;/div&gt;&lt;div&gt;&lt;br&gt;&lt;/div&gt;&lt;div&gt;&lt;b&gt;Data Model&lt;/b&gt;: None (as is)&lt;/div&gt;" style="text;html=1;align=left;verticalAlign=middle;whiteSpace=wrap;rounded=0;strokeWidth=4;fontSize=15;" vertex="1" parent="1">
          <mxGeometry x="694.5" y="436" width="179" height="324" as="geometry" />
        </mxCell>
        <mxCell id="hy5eUsEjmIH-JKfgrxxE-42" value="&lt;b&gt;Object type&lt;/b&gt;: Views&lt;div&gt;&lt;br&gt;&lt;div&gt;&lt;b&gt;No Load&lt;/b&gt;&lt;/div&gt;&lt;div&gt;&lt;b&gt;&lt;br&gt;&lt;/b&gt;&lt;/div&gt;&lt;div&gt;&lt;div&gt;&lt;b&gt;Transformation&lt;/b&gt;&lt;/div&gt;&lt;/div&gt;&lt;div&gt;&lt;ul&gt;&lt;li&gt;&lt;span style=&quot;font-size: 13px;&quot;&gt;Data Integrations&lt;/span&gt;&lt;/li&gt;&lt;li&gt;&lt;span style=&quot;font-size: 13px;&quot;&gt;Aggregations&lt;/span&gt;&lt;/li&gt;&lt;li&gt;&lt;span style=&quot;font-size: 13px;&quot;&gt;Business Logics&lt;/span&gt;&lt;/li&gt;&lt;/ul&gt;&lt;/div&gt;&lt;div&gt;&lt;br&gt;&lt;/div&gt;&lt;div&gt;&lt;b&gt;Data Model&lt;/b&gt;&lt;/div&gt;&lt;/div&gt;&lt;div&gt;&lt;ul&gt;&lt;li&gt;&lt;font style=&quot;font-size: 13px;&quot;&gt;Star Schema&lt;/font&gt;&lt;/li&gt;&lt;li&gt;&lt;font style=&quot;font-size: 13px;&quot;&gt;Flat Table&lt;/font&gt;&lt;/li&gt;&lt;li&gt;&lt;font style=&quot;font-size: 13px;&quot;&gt;Aggregated Tabl&lt;b&gt;e&lt;/b&gt;&lt;/font&gt;&lt;/li&gt;&lt;/ul&gt;&lt;/div&gt;" style="text;html=1;align=left;verticalAlign=middle;whiteSpace=wrap;rounded=0;strokeWidth=4;fontSize=15;" vertex="1" parent="1">
          <mxGeometry x="981" y="436" width="179" height="324" as="geometry" />
        </mxCell>
        <mxCell id="hy5eUsEjmIH-JKfgrxxE-43" value="" style="image;aspect=fixed;html=1;points=[];align=center;fontSize=12;image=img/lib/azure2/analytics/Power_BI_Embedded.svg;" vertex="1" parent="1">
          <mxGeometry x="1340" y="280" width="44.25" height="59" as="geometry" />
        </mxCell>
        <mxCell id="hy5eUsEjmIH-JKfgrxxE-44" value="" style="sketch=0;outlineConnect=0;fontColor=#232F3E;gradientColor=none;fillColor=#E7157B;strokeColor=none;dashed=0;verticalLabelPosition=bottom;verticalAlign=top;align=center;html=1;fontSize=12;fontStyle=0;aspect=fixed;pointerEvents=1;shape=mxgraph.aws4.eventbridge_saas_partner_event_bus_resource;" vertex="1" parent="1">
          <mxGeometry x="1400" y="280" width="70" height="70" as="geometry" />
        </mxCell>
        <mxCell id="hy5eUsEjmIH-JKfgrxxE-45" value="BI &amp;amp; Reporting" style="text;html=1;align=center;verticalAlign=middle;whiteSpace=wrap;rounded=0;" vertex="1" parent="1">
          <mxGeometry x="1369.5" y="368.55" width="71" height="30" as="geometry" />
        </mxCell>
        <mxCell id="hy5eUsEjmIH-JKfgrxxE-46" value="" style="points=[];aspect=fixed;html=1;align=center;shadow=0;dashed=0;fillColor=#FF6A00;strokeColor=none;shape=mxgraph.alibaba_cloud.adb_analyticdb_for_mysql;" vertex="1" parent="1">
          <mxGeometry x="1381" y="485" width="48.9" height="54.900000000000006" as="geometry" />
        </mxCell>
        <mxCell id="hy5eUsEjmIH-JKfgrxxE-47" value="SQL Queries" style="text;html=1;align=center;verticalAlign=middle;whiteSpace=wrap;rounded=0;" vertex="1" parent="1">
          <mxGeometry x="1364" y="560" width="71" height="30" as="geometry" />
        </mxCell>
        <mxCell id="hy5eUsEjmIH-JKfgrxxE-48" value="" style="points=[];aspect=fixed;html=1;align=center;shadow=0;dashed=0;fillColor=#FF6A00;strokeColor=none;shape=mxgraph.alibaba_cloud.alimt_machine_translation;" vertex="1" parent="1">
          <mxGeometry x="1364" y="640" width="47.400000000000006" height="47.7" as="geometry" />
        </mxCell>
        <mxCell id="hy5eUsEjmIH-JKfgrxxE-49" value="Machine Learning" style="text;html=1;align=center;verticalAlign=middle;whiteSpace=wrap;rounded=0;" vertex="1" parent="1">
          <mxGeometry x="1358.9" y="710" width="71" height="30" as="geometry" />
        </mxCell>
      </root>
    </mxGraphModel>
  </diagram>
</mxfile>
